<mxfile host="65bd71144e">
    <diagram id="-FAbavL9gLtcGxbJwY39" name="Page-1">
        <mxGraphModel dx="690" dy="645" grid="1" gridSize="10" guides="1" tooltips="1" connect="1" arrows="1" fold="1" page="1" pageScale="1" pageWidth="850" pageHeight="1100" math="0" shadow="0">
            <root>
                <mxCell id="0"/>
                <mxCell id="1" parent="0"/>
                <mxCell id="KgqSWy4s7bp10wPLBpQM-1" value="Voting_District" style="swimlane;fontStyle=1;align=center;verticalAlign=top;childLayout=stackLayout;horizontal=1;startSize=26;horizontalStack=0;resizeParent=1;resizeParentMax=0;resizeLast=0;collapsible=1;marginBottom=0;" parent="1" vertex="1">
                    <mxGeometry x="450" y="270" width="290" height="290" as="geometry"/>
                </mxCell>
                <mxCell id="KgqSWy4s7bp10wPLBpQM-2" value="- _ID : District_ID&#10;- _Population : int&#10;- _UAP_Support : double&#10;- _APU_Support double&#10;- _Undecided : double" style="text;strokeColor=none;fillColor=none;align=left;verticalAlign=top;spacingLeft=4;spacingRight=4;overflow=hidden;rotatable=0;points=[[0,0.5],[1,0.5]];portConstraint=eastwest;" parent="KgqSWy4s7bp10wPLBpQM-1" vertex="1">
                    <mxGeometry y="26" width="290" height="84" as="geometry"/>
                </mxCell>
                <mxCell id="KgqSWy4s7bp10wPLBpQM-3" value="" style="line;strokeWidth=1;fillColor=none;align=left;verticalAlign=middle;spacingTop=-1;spacingLeft=3;spacingRight=3;rotatable=0;labelPosition=right;points=[];portConstraint=eastwest;" parent="KgqSWy4s7bp10wPLBpQM-1" vertex="1">
                    <mxGeometry y="110" width="290" height="8" as="geometry"/>
                </mxCell>
                <mxCell id="KgqSWy4s7bp10wPLBpQM-4" value="+ Voting_District() : void&#10;&#10;+ Voting_District(&#10;        ID : District_ID,&#10;        Population : int,&#10;        UAP_Support : double,&#10;        APU_Support : double,&#10;        Undecided : double&#10;    ) : void&#10;&#10;+ Voting_District(CopyFrom :Voting_District) : void" style="text;strokeColor=none;fillColor=none;align=left;verticalAlign=top;spacingLeft=4;spacingRight=4;overflow=hidden;rotatable=0;points=[[0,0.5],[1,0.5]];portConstraint=eastwest;" parent="KgqSWy4s7bp10wPLBpQM-1" vertex="1">
                    <mxGeometry y="118" width="290" height="172" as="geometry"/>
                </mxCell>
                <mxCell id="KgqSWy4s7bp10wPLBpQM-9" style="edgeStyle=orthogonalEdgeStyle;rounded=0;orthogonalLoop=1;jettySize=auto;html=1;entryX=0.5;entryY=0;entryDx=0;entryDy=0;endArrow=diamond;endFill=1;endSize=15;" parent="1" source="KgqSWy4s7bp10wPLBpQM-5" target="KgqSWy4s7bp10wPLBpQM-1" edge="1">
                    <mxGeometry relative="1" as="geometry"/>
                </mxCell>
                <mxCell id="KgqSWy4s7bp10wPLBpQM-5" value="District_ID&#10;" style="swimlane;fontStyle=1;align=center;verticalAlign=top;childLayout=stackLayout;horizontal=1;startSize=26;horizontalStack=0;resizeParent=1;resizeParentMax=0;resizeLast=0;collapsible=1;marginBottom=0;" parent="1" vertex="1">
                    <mxGeometry x="550" y="70" width="160" height="120" as="geometry"/>
                </mxCell>
                <mxCell id="KgqSWy4s7bp10wPLBpQM-6" value="+ x_position : int&#10;+ y_position: int" style="text;strokeColor=none;fillColor=none;align=left;verticalAlign=top;spacingLeft=4;spacingRight=4;overflow=hidden;rotatable=0;points=[[0,0.5],[1,0.5]];portConstraint=eastwest;" parent="KgqSWy4s7bp10wPLBpQM-5" vertex="1">
                    <mxGeometry y="26" width="160" height="44" as="geometry"/>
                </mxCell>
                <mxCell id="KgqSWy4s7bp10wPLBpQM-7" value="" style="line;strokeWidth=1;fillColor=none;align=left;verticalAlign=middle;spacingTop=-1;spacingLeft=3;spacingRight=3;rotatable=0;labelPosition=right;points=[];portConstraint=eastwest;" parent="KgqSWy4s7bp10wPLBpQM-5" vertex="1">
                    <mxGeometry y="70" width="160" height="8" as="geometry"/>
                </mxCell>
                <mxCell id="KgqSWy4s7bp10wPLBpQM-8" value="+ x(): int&#10;+ y(): int" style="text;strokeColor=none;fillColor=none;align=left;verticalAlign=top;spacingLeft=4;spacingRight=4;overflow=hidden;rotatable=0;points=[[0,0.5],[1,0.5]];portConstraint=eastwest;" parent="KgqSWy4s7bp10wPLBpQM-5" vertex="1">
                    <mxGeometry y="78" width="160" height="42" as="geometry"/>
                </mxCell>
                <mxCell id="KgqSWy4s7bp10wPLBpQM-14" value="Voting_Grid" style="swimlane;fontStyle=1;align=center;verticalAlign=top;childLayout=stackLayout;horizontal=1;startSize=26;horizontalStack=0;resizeParent=1;resizeParentMax=0;resizeLast=0;collapsible=1;marginBottom=0;" parent="1" vertex="1">
                    <mxGeometry x="70" y="270" width="240" height="270" as="geometry"/>
                </mxCell>
                <mxCell id="KgqSWy4s7bp10wPLBpQM-15" value="- _Districts : Voting_District**&#10;- _Analysers : vector&lt;Voting_Analyser*&gt;" style="text;strokeColor=none;fillColor=none;align=left;verticalAlign=top;spacingLeft=4;spacingRight=4;overflow=hidden;rotatable=0;points=[[0,0.5],[1,0.5]];portConstraint=eastwest;" parent="KgqSWy4s7bp10wPLBpQM-14" vertex="1">
                    <mxGeometry y="26" width="240" height="44" as="geometry"/>
                </mxCell>
                <mxCell id="KgqSWy4s7bp10wPLBpQM-16" value="" style="line;strokeWidth=1;fillColor=none;align=left;verticalAlign=middle;spacingTop=-1;spacingLeft=3;spacingRight=3;rotatable=0;labelPosition=right;points=[];portConstraint=eastwest;" parent="KgqSWy4s7bp10wPLBpQM-14" vertex="1">
                    <mxGeometry y="70" width="240" height="8" as="geometry"/>
                </mxCell>
                <mxCell id="KgqSWy4s7bp10wPLBpQM-17" value="+ Voting_Grid(fileName : string) : void&#10;&#10;+ ~Voting_Grid() : void&#10;&#10;+ operator = (VG_RHS : Voting_Grid) : void&#10;&#10;+ operator ! (): void&#10;&#10;+ operator () (x : int, y : int) : VotingDistrict&#10;&#10;+ loadFromFile(fileName : string) : void&#10;&#10;+saveToFile() : void" style="text;strokeColor=none;fillColor=none;align=left;verticalAlign=top;spacingLeft=4;spacingRight=4;overflow=hidden;rotatable=0;points=[[0,0.5],[1,0.5]];portConstraint=eastwest;" parent="KgqSWy4s7bp10wPLBpQM-14" vertex="1">
                    <mxGeometry y="78" width="240" height="192" as="geometry"/>
                </mxCell>
                <mxCell id="KgqSWy4s7bp10wPLBpQM-35" style="edgeStyle=orthogonalEdgeStyle;rounded=0;orthogonalLoop=1;jettySize=auto;html=1;exitX=0.5;exitY=0;exitDx=0;exitDy=0;entryX=0.5;entryY=1;entryDx=0;entryDy=0;entryPerimeter=0;endArrow=diamond;endFill=1;endSize=15;strokeWidth=1;" parent="1" source="KgqSWy4s7bp10wPLBpQM-19" target="KgqSWy4s7bp10wPLBpQM-17" edge="1">
                    <mxGeometry relative="1" as="geometry"/>
                </mxCell>
                <mxCell id="KgqSWy4s7bp10wPLBpQM-19" value="Voting_Analyser" style="swimlane;fontStyle=1;align=center;verticalAlign=top;childLayout=stackLayout;horizontal=1;startSize=26;horizontalStack=0;resizeParent=1;resizeParentMax=0;resizeLast=0;collapsible=1;marginBottom=0;" parent="1" vertex="1">
                    <mxGeometry x="110" y="590" width="160" height="60" as="geometry"/>
                </mxCell>
                <mxCell id="KgqSWy4s7bp10wPLBpQM-21" value="" style="line;strokeWidth=1;fillColor=none;align=left;verticalAlign=middle;spacingTop=-1;spacingLeft=3;spacingRight=3;rotatable=0;labelPosition=right;points=[];portConstraint=eastwest;" parent="KgqSWy4s7bp10wPLBpQM-19" vertex="1">
                    <mxGeometry y="26" width="160" height="8" as="geometry"/>
                </mxCell>
                <mxCell id="KgqSWy4s7bp10wPLBpQM-22" value="+ analyse() : string" style="text;strokeColor=none;fillColor=none;align=left;verticalAlign=top;spacingLeft=4;spacingRight=4;overflow=hidden;rotatable=0;points=[[0,0.5],[1,0.5]];portConstraint=eastwest;" parent="KgqSWy4s7bp10wPLBpQM-19" vertex="1">
                    <mxGeometry y="34" width="160" height="26" as="geometry"/>
                </mxCell>
                <mxCell id="KgqSWy4s7bp10wPLBpQM-32" style="edgeStyle=orthogonalEdgeStyle;rounded=0;orthogonalLoop=1;jettySize=auto;html=1;exitX=0.5;exitY=0;exitDx=0;exitDy=0;entryX=0.503;entryY=1;entryDx=0;entryDy=0;entryPerimeter=0;endArrow=block;endFill=1;endSize=15;strokeWidth=1;" parent="1" source="KgqSWy4s7bp10wPLBpQM-23" target="KgqSWy4s7bp10wPLBpQM-22" edge="1">
                    <mxGeometry relative="1" as="geometry"/>
                </mxCell>
                <mxCell id="KgqSWy4s7bp10wPLBpQM-23" value="BattleGround_Analyse" style="swimlane;fontStyle=1;align=center;verticalAlign=top;childLayout=stackLayout;horizontal=1;startSize=26;horizontalStack=0;resizeParent=1;resizeParentMax=0;resizeLast=0;collapsible=1;marginBottom=0;" parent="1" vertex="1">
                    <mxGeometry x="110" y="710" width="160" height="60" as="geometry"/>
                </mxCell>
                <mxCell id="KgqSWy4s7bp10wPLBpQM-24" value="" style="line;strokeWidth=1;fillColor=none;align=left;verticalAlign=middle;spacingTop=-1;spacingLeft=3;spacingRight=3;rotatable=0;labelPosition=right;points=[];portConstraint=eastwest;" parent="KgqSWy4s7bp10wPLBpQM-23" vertex="1">
                    <mxGeometry y="26" width="160" height="8" as="geometry"/>
                </mxCell>
                <mxCell id="KgqSWy4s7bp10wPLBpQM-25" value="+ analyse() : string" style="text;strokeColor=none;fillColor=none;align=left;verticalAlign=top;spacingLeft=4;spacingRight=4;overflow=hidden;rotatable=0;points=[[0,0.5],[1,0.5]];portConstraint=eastwest;" parent="KgqSWy4s7bp10wPLBpQM-23" vertex="1">
                    <mxGeometry y="34" width="160" height="26" as="geometry"/>
                </mxCell>
                <mxCell id="KgqSWy4s7bp10wPLBpQM-33" style="edgeStyle=orthogonalEdgeStyle;rounded=0;orthogonalLoop=1;jettySize=auto;html=1;exitX=0.5;exitY=0;exitDx=0;exitDy=0;endArrow=block;endFill=1;endSize=15;strokeWidth=1;" parent="1" source="KgqSWy4s7bp10wPLBpQM-26" edge="1">
                    <mxGeometry relative="1" as="geometry">
                        <mxPoint x="190" y="650" as="targetPoint"/>
                    </mxGeometry>
                </mxCell>
                <mxCell id="KgqSWy4s7bp10wPLBpQM-26" value="PotentialFraud_Analyser" style="swimlane;fontStyle=1;align=center;verticalAlign=top;childLayout=stackLayout;horizontal=1;startSize=26;horizontalStack=0;resizeParent=1;resizeParentMax=0;resizeLast=0;collapsible=1;marginBottom=0;" parent="1" vertex="1">
                    <mxGeometry x="315" y="710" width="160" height="60" as="geometry"/>
                </mxCell>
                <mxCell id="KgqSWy4s7bp10wPLBpQM-27" value="" style="line;strokeWidth=1;fillColor=none;align=left;verticalAlign=middle;spacingTop=-1;spacingLeft=3;spacingRight=3;rotatable=0;labelPosition=right;points=[];portConstraint=eastwest;" parent="KgqSWy4s7bp10wPLBpQM-26" vertex="1">
                    <mxGeometry y="26" width="160" height="8" as="geometry"/>
                </mxCell>
                <mxCell id="KgqSWy4s7bp10wPLBpQM-28" value="+ analyse() : string" style="text;strokeColor=none;fillColor=none;align=left;verticalAlign=top;spacingLeft=4;spacingRight=4;overflow=hidden;rotatable=0;points=[[0,0.5],[1,0.5]];portConstraint=eastwest;" parent="KgqSWy4s7bp10wPLBpQM-26" vertex="1">
                    <mxGeometry y="34" width="160" height="26" as="geometry"/>
                </mxCell>
                <mxCell id="KgqSWy4s7bp10wPLBpQM-34" style="edgeStyle=orthogonalEdgeStyle;rounded=0;orthogonalLoop=1;jettySize=auto;html=1;exitX=0.5;exitY=0;exitDx=0;exitDy=0;entryX=0.5;entryY=1;entryDx=0;entryDy=0;entryPerimeter=0;endArrow=block;endFill=1;endSize=15;strokeWidth=1;" parent="1" source="KgqSWy4s7bp10wPLBpQM-29" target="KgqSWy4s7bp10wPLBpQM-22" edge="1">
                    <mxGeometry relative="1" as="geometry"/>
                </mxCell>
                <mxCell id="KgqSWy4s7bp10wPLBpQM-29" value="PredictedOutcome_Analyser" style="swimlane;fontStyle=1;align=center;verticalAlign=top;childLayout=stackLayout;horizontal=1;startSize=26;horizontalStack=0;resizeParent=1;resizeParentMax=0;resizeLast=0;collapsible=1;marginBottom=0;" parent="1" vertex="1">
                    <mxGeometry x="530" y="710" width="210" height="60" as="geometry"/>
                </mxCell>
                <mxCell id="KgqSWy4s7bp10wPLBpQM-30" value="" style="line;strokeWidth=1;fillColor=none;align=left;verticalAlign=middle;spacingTop=-1;spacingLeft=3;spacingRight=3;rotatable=0;labelPosition=right;points=[];portConstraint=eastwest;" parent="KgqSWy4s7bp10wPLBpQM-29" vertex="1">
                    <mxGeometry y="26" width="210" height="8" as="geometry"/>
                </mxCell>
                <mxCell id="KgqSWy4s7bp10wPLBpQM-31" value="+ analyse() : string" style="text;strokeColor=none;fillColor=none;align=left;verticalAlign=top;spacingLeft=4;spacingRight=4;overflow=hidden;rotatable=0;points=[[0,0.5],[1,0.5]];portConstraint=eastwest;" parent="KgqSWy4s7bp10wPLBpQM-29" vertex="1">
                    <mxGeometry y="34" width="210" height="26" as="geometry"/>
                </mxCell>
                <mxCell id="KgqSWy4s7bp10wPLBpQM-36" style="edgeStyle=orthogonalEdgeStyle;rounded=0;orthogonalLoop=1;jettySize=auto;html=1;exitX=0;exitY=0.5;exitDx=0;exitDy=0;entryX=1.01;entryY=0.403;entryDx=0;entryDy=0;entryPerimeter=0;endArrow=diamond;endFill=1;endSize=15;strokeWidth=1;" parent="1" source="KgqSWy4s7bp10wPLBpQM-4" target="KgqSWy4s7bp10wPLBpQM-17" edge="1">
                    <mxGeometry relative="1" as="geometry"/>
                </mxCell>
            </root>
        </mxGraphModel>
    </diagram>
</mxfile>